<svg width="52" height="56" viewBox="0 0 52 56" fill="none" xmlns="http://www.w3.org/2000/svg">
<path d="M2.75 12.5L10.5 2.16669H41.5L49.25 12.5M2.75 12.5V48.6667C2.75 50.037 3.29434 51.3511 4.26328 52.3201C5.23222 53.289 6.54638 53.8334 7.91667 53.8334H44.0833C45.4536 53.8334 46.7678 53.289 47.7367 52.3201C48.7057 51.3511 49.25 50.037 49.25 48.6667V12.5M2.75 12.5H49.25M36.3333 22.8334C36.3333 25.5739 35.2446 28.2022 33.3068 30.1401C31.3689 32.078 28.7406 33.1667 26 33.1667C23.2594 33.1667 20.6311 32.078 18.6932 30.1401C16.7554 28.2022 15.6667 25.5739 15.6667 22.8334" stroke="#F3F3F3" stroke-width="4" stroke-linecap="round" stroke-linejoin="round"/>
</svg>
