<svg width="51" height="51" viewBox="0 0 51 51" fill="none" xmlns="http://www.w3.org/2000/svg">
<path d="M25.5 25.5C22.0625 25.5 19.1198 24.276 16.6719 21.8281C14.224 19.3802 13 16.4375 13 13C13 9.5625 14.224 6.61979 16.6719 4.17188C19.1198 1.72396 22.0625 0.5 25.5 0.5C28.9375 0.5 31.8802 1.72396 34.3281 4.17188C36.776 6.61979 38 9.5625 38 13C38 16.4375 36.776 19.3802 34.3281 21.8281C31.8802 24.276 28.9375 25.5 25.5 25.5ZM0.5 50.5V41.75C0.5 39.9792 0.955729 38.3516 1.86719 36.8672C2.77865 35.3828 3.98958 34.25 5.5 33.4688C8.72917 31.8542 12.0104 30.6432 15.3438 29.8359C18.6771 29.0286 22.0625 28.625 25.5 28.625C28.9375 28.625 32.3229 29.0286 35.6562 29.8359C38.9896 30.6432 42.2708 31.8542 45.5 33.4688C47.0104 34.25 48.2214 35.3828 49.1328 36.8672C50.0443 38.3516 50.5 39.9792 50.5 41.75V50.5H0.5ZM6.75 44.25H44.25V41.75C44.25 41.1771 44.1068 40.6562 43.8203 40.1875C43.5339 39.7188 43.1562 39.3542 42.6875 39.0938C39.875 37.6875 37.0365 36.6328 34.1719 35.9297C31.3073 35.2266 28.4167 34.875 25.5 34.875C22.5833 34.875 19.6927 35.2266 16.8281 35.9297C13.9635 36.6328 11.125 37.6875 8.3125 39.0938C7.84375 39.3542 7.46615 39.7188 7.17969 40.1875C6.89323 40.6562 6.75 41.1771 6.75 41.75V44.25ZM25.5 19.25C27.2188 19.25 28.6901 18.638 29.9141 17.4141C31.138 16.1901 31.75 14.7188 31.75 13C31.75 11.2812 31.138 9.8099 29.9141 8.58594C28.6901 7.36198 27.2188 6.75 25.5 6.75C23.7812 6.75 22.3099 7.36198 21.0859 8.58594C19.862 9.8099 19.25 11.2812 19.25 13C19.25 14.7188 19.862 16.1901 21.0859 17.4141C22.3099 18.638 23.7812 19.25 25.5 19.25Z" fill="#FEF7FF"/>
</svg>
